<svg width="70" height="29" viewBox="0 0 70 29" fill="none" xmlns="http://www.w3.org/2000/svg">
<g clip-path="url(#clip0_29_22)">
<path d="M20.2571 4.55454C19.2476 2.16387 16.8742 0.645264 14.2894 0.645264L5.71211 0.645264L7.90768 4.78136L14.3737 4.78136C15.7855 4.78136 16.3409 5.86198 16.4772 6.19308C16.6134 6.52417 16.9819 7.68431 15.9841 8.68673C15.0848 9.59007 13.8884 10.088 12.6154 10.088L10.0332 10.088L10.0332 10.0867L10.4705 9.32806L12.4182 5.93889L7.66243 5.93889L5.27741 10.0893L2.37464 10.0893L-1.94603e-09 14.2254L2.90147 14.2254L0.826583 17.8349L3.88118 17.8349C4.93225 17.8349 5.90416 17.2718 6.43099 16.3567L7.65595 14.2254L12.6154 14.2254C14.9875 14.2254 17.2181 13.2973 18.8946 11.6118C20.7736 9.72564 21.2978 7.0156 20.2571 4.55454Z" fill="white"/>
<path d="M32.687 17.8607L29.8024 2.25743C29.6272 1.30846 28.8019 0.618896 27.8417 0.618896L24.5808 0.618896L24.4354 0.892637L15.8154 17.0916L15.4066 17.8607L20.3544 17.8607L22.1374 14.3894L27.2409 14.3894L27.7405 17.4253L27.8118 17.8607L32.687 17.8607ZM24.0864 10.5935L26.0289 6.77937L26.657 10.5935L24.0864 10.5935Z" fill="white"/>
<path d="M38.3472 17.8607C39.2685 17.8607 40.217 17.7433 41.1656 17.51C42.1193 17.2767 43.051 16.9104 43.9334 16.419C44.8249 15.9236 45.6359 15.2719 46.3418 14.4845C47.0542 13.6907 47.6225 12.7222 48.0326 11.6089C48.4413 10.4996 48.6477 9.20393 48.6477 7.75962C48.6477 6.31531 48.3791 5.10955 47.8483 4.05239C47.3059 2.97307 46.469 2.11926 45.3582 1.51442C44.2656 0.920011 42.8525 0.618896 41.1591 0.618896L34.8968 0.618896L31.9032 17.8607L38.3472 17.8607ZM42.7656 11.9726C42.3763 12.4745 41.8455 12.8825 41.1864 13.1849C40.5181 13.4912 39.6707 13.6477 38.6664 13.6477L37.2688 13.6477L38.8234 4.78627L40.426 4.78627C41.6263 4.78627 42.5203 5.0548 43.0809 5.58403C43.6324 6.10284 43.9114 6.95143 43.9114 8.10636C43.9114 8.82721 43.8179 9.53503 43.6324 10.2116C43.4533 10.8672 43.1613 11.459 42.763 11.9726L42.7656 11.9726Z" fill="white"/>
<path d="M61.0425 0.618896L49.5742 0.618896L49.4989 1.04906L46.6636 17.248L46.5559 17.8607L57.4857 17.8607L57.5636 17.4331L58.1346 14.2864L58.2461 13.6711L51.9631 13.6711L52.4289 10.8959L55.9442 10.8959L56.0168 10.4618L56.5424 7.31512L56.6436 6.70637L53.1309 6.70637L53.4553 4.80974L60.8712 4.80974L60.9517 4.38609L61.546 1.23938L61.6628 0.6202L61.0399 0.6202L61.0425 0.618896Z" fill="white"/>
<path d="M70 13.6476L63.4574 13.6476L65.2377 3.39793C65.4894 1.94711 64.3787 0.620117 62.9124 0.620117L61.0853 0.620117L58.0437 17.8619L69.2396 17.8619L69.9987 13.6489L70 13.6476Z" fill="white"/>
<path d="M24.5548 0.645264L21.9829 0.645264L24.5548 2.12086L24.5548 0.645264Z" fill="white"/>
<path d="M49.5703 0.645264L46.9984 0.645264L49.5703 2.12086L49.5703 0.645264Z" fill="white"/>
<path d="M45.5192 19.7163L48.4128 19.7163C49.268 19.7163 49.9687 19.8584 50.5137 20.1426C51.0587 20.4267 51.4622 20.8256 51.7244 21.3405C51.9865 21.8554 52.1176 22.4694 52.1176 23.1837C52.1176 23.898 52.0189 24.5172 51.8204 25.0686C51.6219 25.62 51.352 26.0945 51.0094 26.492C50.6668 26.8896 50.2723 27.2155 49.8286 27.471C49.3848 27.7265 48.9137 27.9168 48.418 28.0432C47.9211 28.1684 47.4228 28.2323 46.9219 28.2323L44.0282 28.2323L45.5179 19.7163L45.5192 19.7163ZM47.0815 26.8935C47.7108 26.8935 48.2442 26.7958 48.6802 26.6015C49.1162 26.4073 49.4691 26.1388 49.7403 25.7986C50.0102 25.4583 50.2088 25.0751 50.3333 24.6489C50.4579 24.2226 50.5215 23.7794 50.5215 23.3167C50.5215 22.5541 50.3281 21.9844 49.9401 21.6077C49.5522 21.231 48.9436 21.042 48.1118 21.042L46.8401 21.042L45.8111 26.8935L47.0828 26.8935L47.0815 26.8935Z" fill="white"/>
<path d="M51.4169 28.2323L56.0065 19.7163L57.7622 19.7163L59.3609 28.2323L57.7259 28.2323L57.3872 26.2613L54.0809 26.2613L53.0519 28.2323L51.4169 28.2323ZM54.6985 25.0699L57.1939 25.0699L56.5762 21.4696L54.6985 25.0699Z" fill="white"/>
<path d="M63.4419 28.3785C62.8605 28.3785 62.3441 28.2794 61.8912 28.08C61.4384 27.8818 61.0556 27.6094 60.7402 27.2653C60.4249 26.9211 60.1874 26.5288 60.0252 26.0908C59.863 25.6528 59.7826 25.1901 59.7826 24.7038C59.7826 23.9908 59.9137 23.3234 60.1758 22.7029C60.4379 22.0825 60.8012 21.5376 61.2658 21.067C61.7303 20.5964 62.2714 20.2301 62.8891 19.9655C63.5068 19.7022 64.1672 19.5706 64.8693 19.5706C65.483 19.5706 66.0202 19.6735 66.4796 19.8808C66.9403 20.0881 67.3218 20.3657 67.6241 20.7137C67.9264 21.0631 68.1522 21.4555 68.3028 21.8934C68.452 22.3314 68.5272 22.7772 68.5272 23.2322C68.5272 23.9465 68.3962 24.6152 68.1341 25.2396C67.8719 25.864 67.5086 26.4115 67.0441 26.882C66.5795 27.3526 66.041 27.7189 65.4272 27.9835C64.8135 28.2468 64.1517 28.3785 63.4406 28.3785L63.4419 28.3785ZM63.6352 26.9668C64.0959 26.9668 64.5228 26.8742 64.9186 26.6865C65.3143 26.5001 65.6634 26.242 65.9657 25.9135C66.2681 25.585 66.5043 25.2018 66.6742 24.7638C66.8442 24.3258 66.9286 23.8592 66.9286 23.3651C66.9286 22.8711 66.839 22.4553 66.6626 22.0942C66.4848 21.7331 66.2292 21.4555 65.8931 21.2612C65.5583 21.067 65.156 20.9692 64.6876 20.9692C64.2192 20.9692 63.7948 21.0631 63.3913 21.2495C62.9877 21.4359 62.6361 21.6953 62.3376 22.0277C62.0392 22.3601 61.8043 22.7433 61.6356 23.1774C61.4656 23.6115 61.3813 24.0755 61.3813 24.5709C61.3813 25.0662 61.4721 25.4821 61.6538 25.8418C61.8354 26.2029 62.0962 26.4806 62.4349 26.6748C62.7736 26.869 63.1733 26.9668 63.6339 26.9668L63.6352 26.9668Z" fill="white"/>
</g>
<defs>
<clipPath id="clip0_29_22">
<rect width="70" height="27.7586" fill="white" transform="translate(0 0.620605)"/>
</clipPath>
</defs>
</svg>
