<svg width="204" height="211" viewBox="0 0 204 211" fill="none" xmlns="http://www.w3.org/2000/svg">
<path d="M32.7147 211.373L20.4646 204.86L22.3039 219.745L29.5633 240.401L18.9671 250.48L26.5973 267.72L41.3159 275.365L42.7062 262.559L50.0191 266.808L62.2641 233.585L55.0243 220.706L49.4724 200.235L32.7147 211.373Z" stroke="white" stroke-width="3.43505"/>
<path d="M62.294 169.666L65.4454 140.639L48.112 149.123L40.0967 167.256L38.1502 185.185L50.9564 186.575L62.294 169.666Z" stroke="white" stroke-width="3.43505"/>
<path d="M125.339 10.6591L98.3557 28.4611L83.2664 24.2314L69.6456 38.3012L57.7663 28.3734L26.6803 36.228L29.8367 46.9364L18.7236 77.6908L37.8963 84.0913L36.9694 92.6288L58.1812 80.247L91.0334 95.9069L102.527 141.209L206.933 213.874L217.535 243.531L204.397 261.108L214.291 273.412L239.342 241.579L227.423 216.099L236.107 199.765L266.696 220.362L268.549 203.288L208.431 168.255L220.178 163.484L213.514 153.258L193.322 156.249L167.836 128.432L158.479 103.229L133.311 88.4035L136.926 55.1075L164.782 45.1746L164.167 26.9679L125.339 10.6591Z" stroke="white" stroke-width="3.43505"/>
<ellipse cx="2.486" cy="2.5947" rx="2.486" ry="2.5947" transform="matrix(0.993628 0.112706 -0.103356 0.994644 95.1504 55.4585)" fill="#001214"/>
<ellipse cx="2.486" cy="2.5947" rx="2.486" ry="2.5947" transform="matrix(0.993628 0.112706 -0.103356 0.994644 84.6016 55.4585)" fill="#001214"/>
<ellipse cx="2.486" cy="2.5947" rx="2.486" ry="2.5947" transform="matrix(0.993628 0.112706 -0.103356 0.994644 80.6484 63.3696)" fill="#001214"/>
<ellipse cx="2.486" cy="2.5947" rx="2.486" ry="2.5947" transform="matrix(0.993628 0.112706 -0.103356 0.994644 89.875 63.3696)" fill="#001214"/>
<ellipse cx="2.486" cy="2.5947" rx="2.486" ry="2.5947" transform="matrix(0.993628 0.112706 -0.103356 0.994644 103.062 50.1846)" fill="#001214"/>
<path d="M96.2072 50.1411C96.0591 51.5665 94.8331 52.5965 93.4689 52.4417C92.1047 52.287 91.1188 51.0061 91.2669 49.5807C91.415 48.1554 92.641 47.1254 94.0053 47.2801C95.3695 47.4349 96.3554 48.7158 96.2072 50.1411Z" fill="#001214"/>
<circle cx="102.748" cy="66.2306" r="2.59597" transform="rotate(6.19614 102.748 66.2306)" fill="#001214"/>
<circle cx="92.201" cy="39.861" r="2.59597" transform="rotate(6.19614 92.201 39.861)" fill="#001214"/>
<ellipse cx="2.486" cy="2.5947" rx="2.486" ry="2.5947" transform="matrix(0.993628 0.112706 -0.103356 0.994644 83.2832 43.5923)" fill="#001214"/>
<ellipse cx="2.486" cy="2.5947" rx="2.486" ry="2.5947" transform="matrix(0.993628 0.112706 -0.103356 0.994644 76.6914 51.5034)" fill="#001214"/>
<circle opacity="0.1" cx="84.8227" cy="45.8235" r="16.1725" transform="rotate(6.19614 84.8227 45.8235)" fill="#D7FF65"/>
<circle cx="84.8218" cy="45.8228" r="5.98522" transform="rotate(6.19614 84.8218 45.8228)" fill="#D7FF65"/>
</svg>
